<svg width="16" height="16" viewBox="0 0 16 16" fill="none" xmlns="http://www.w3.org/2000/svg">
<g id="bxl-whatsapp">
<path id="Vector" d="M3.38596 10.9076L3.33093 11.1087L2.71095 13.3738L5.04574 12.761L5.23768 12.7107L5.41193 12.8056C6.21317 13.2423 7.11502 13.4727 8.033 13.4733H8.03533C11.057 13.4733 13.5187 11.0127 13.52 7.98867L3.38596 10.9076ZM3.38596 10.9076L3.28187 10.727M3.38596 10.9076L3.28187 10.727M3.28187 10.727C2.80248 9.89524 2.55004 8.95213 2.55 7.98487L3.28187 10.727ZM9.69462 9.27528C9.55323 9.4562 9.36869 9.67142 9.3086 9.74023L8.932 9.41133L9.3086 9.74023C9.21678 9.84536 9.06923 9.96598 8.85279 9.99194C8.65726 10.0154 8.49161 9.94949 8.38439 9.89588C8.37066 9.88901 8.34809 9.87939 8.31774 9.86644C8.12568 9.7845 7.62193 9.5696 7.07261 9.07989L7.07249 9.07978C6.56861 8.63029 6.23701 8.08674 6.14123 7.92224C6.0382 7.74527 5.9963 7.53095 6.07687 7.31499C6.13558 7.15762 6.24778 7.04867 6.28161 7.01582C6.2839 7.0136 6.28582 7.01173 6.28735 7.01021L6.28754 7.01003C6.31553 6.98231 6.34 6.95214 6.37584 6.90796C6.40298 6.87449 6.43665 6.83298 6.4833 6.77841C6.49772 6.76155 6.50398 6.75167 6.51079 6.73948C6.51216 6.73704 6.5136 6.73439 6.51519 6.73142C6.45135 6.58283 6.32723 6.28092 6.22126 6.02315C6.1741 5.90843 6.13053 5.80246 6.09747 5.72263C6.04281 5.72127 5.9832 5.7207 5.9216 5.72067C5.92039 5.72096 5.91857 5.72149 5.91632 5.72239C5.9133 5.72359 5.90933 5.72553 5.90458 5.72875C5.89994 5.7319 5.89335 5.7371 5.88536 5.74579L9.69462 9.27528ZM9.69462 9.27528C9.70521 9.28015 9.71627 9.28527 9.72777 9.29062C9.81512 9.33122 9.92205 9.38224 10.0309 9.43478C10.2487 9.53994 10.4675 9.64793 10.5396 9.68415C10.5465 9.68761 10.5533 9.69103 10.5601 9.69437C10.5483 9.76869 10.5271 9.85872 10.4924 9.95595C10.4925 9.95561 10.4926 9.95547 10.4926 9.95551C10.4922 9.95597 10.4807 9.98117 10.4362 10.0266C10.3907 10.0731 10.3269 10.124 10.2499 10.1733C10.084 10.2796 9.9303 10.3327 9.88056 10.3401C9.66272 10.3721 9.42146 10.3809 9.16403 10.299C8.9538 10.2317 8.69292 10.1455 8.35762 10.001L9.69462 9.27528ZM11.9149 4.10868C10.8787 3.07129 9.50335 2.50067 8.03533 2.5L11.9149 4.10868ZM11.9149 4.10868C12.9511 5.14609 13.5199 6.52221 13.52 7.98846L11.9149 4.10868ZM8.03296 13.4633H8.03333H8.03533C11.053 13.4633 13.5079 11.0073 13.5093 7.98892C13.5101 6.52684 12.94 5.15046 11.9079 4.11616L11.9077 4.11591C10.8747 3.08216 9.49889 2.5114 8.03758 2.51067H8.03733C5.01723 2.51067 2.56213 4.96576 2.56067 7.98442V7.98467C2.56067 9.01818 2.84958 10.0259 3.39806 10.8982L3.39913 10.8999L2.95505 12.5234L2.72657 13.3588L3.56423 13.139L5.2442 12.6981L5.24548 12.6989L5.24591 12.6992C6.08774 13.1994 7.05128 13.4626 8.03296 13.4633ZM6.86333 7.10333C6.92668 7.02924 6.95404 6.97339 6.9914 6.89709C6.99808 6.88346 7.00508 6.86916 7.01267 6.854C7.06267 6.754 7.038 6.66667 7 6.592C6.97519 6.54193 6.83463 6.2 6.70655 5.88841L6.86333 7.10333ZM2.55 7.98467C2.55133 4.96077 5.0128 2.50011 8.03513 2.5L2.55 7.98467Z" fill="#D8D7CE" stroke="#858479"/>
</g>
</svg>
