<svg width="40" height="40" viewBox="0 0 40 40" fill="none" xmlns="http://www.w3.org/2000/svg">
<g id="film-outline" clip-path="url(#clip0_1_764)">
<g id="Layer 2">
<g id="film">
<path id="Vector" d="M30.4333 5H9.56667C8.35551 5 7.19396 5.48113 6.33755 6.33755C5.48113 7.19396 5 8.35551 5 9.56667V30.4333C5 31.6445 5.48113 32.806 6.33755 33.6625C7.19396 34.5189 8.35551 35 9.56667 35H30.4333C31.6445 35 32.806 34.5189 33.6625 33.6625C34.5189 32.806 35 31.6445 35 30.4333V9.56667C35 8.35551 34.5189 7.19396 33.6625 6.33755C32.806 5.48113 31.6445 5 30.4333 5ZM11.6667 18.3333H8.33333V15H11.6667V18.3333ZM8.33333 21.6667H11.6667V25H8.33333V21.6667ZM15 8.33333H25V31.6667H15V8.33333ZM31.6667 18.3333H28.3333V15H31.6667V18.3333ZM28.3333 21.6667H31.6667V25H28.3333V21.6667ZM31.6667 9.56667V11.6667H28.3333V8.33333H30.4333C30.5953 8.33333 30.7557 8.36523 30.9053 8.42722C31.0549 8.4892 31.1909 8.58004 31.3054 8.69457C31.42 8.80909 31.5108 8.94506 31.5728 9.09469C31.6348 9.24433 31.6667 9.4047 31.6667 9.56667ZM9.56667 8.33333H11.6667V11.6667H8.33333V9.56667C8.33333 9.4047 8.36523 9.24433 8.42722 9.09469C8.4892 8.94506 8.58004 8.80909 8.69457 8.69457C8.80909 8.58004 8.94506 8.4892 9.09469 8.42722C9.24433 8.36523 9.4047 8.33333 9.56667 8.33333ZM8.33333 30.4333V28.3333H11.6667V31.6667H9.56667C9.4047 31.6667 9.24433 31.6348 9.09469 31.5728C8.94506 31.5108 8.80909 31.42 8.69457 31.3054C8.58004 31.1909 8.4892 31.0549 8.42722 30.9053C8.36523 30.7557 8.33333 30.5953 8.33333 30.4333ZM31.6667 30.4333C31.6667 30.7604 31.5367 31.0741 31.3054 31.3054C31.0741 31.5367 30.7604 31.6667 30.4333 31.6667H28.3333V28.3333H31.6667V30.4333Z" fill="#D8D7CE"/>
</g>
</g>
</g>
<defs>
<clipPath id="clip0_1_764">
<rect width="40" height="40" fill="white"/>
</clipPath>
</defs>
</svg>
