<?xml version="1.0" encoding="UTF-8"?>
<!DOCTYPE svg PUBLIC "-//W3C//DTD SVG 1.1//EN" "http://www.w3.org/Graphics/SVG/1.1/DTD/svg11.dtd">
<!-- Creator: CorelDRAW 2018 (64 Bit) -->
<?xml-stylesheet href="icon-whatsapp.css" type="text/css"?>
<svg xmlns="http://www.w3.org/2000/svg" xml:space="preserve" width="210mm" height="210mm" version="1.1" style="shape-rendering:geometricPrecision; text-rendering:geometricPrecision; image-rendering:optimizeQuality; fill-rule:evenodd; clip-rule:evenodd"
viewBox="0 0 210 210"
 xmlns:xlink="http://www.w3.org/1999/xlink">
 <g id="Camada_x0020_1">
  <metadata id="CorelCorpID_0Corel-Layer"/>
  <path class="fil0" d="M178.5469 30.5156c-19.6406,-19.6875 -45.7969,-30.5156 -73.5938,-30.5156 -57.375,0 -104.0625,46.6875 -104.0625,104.0625 0,18.3281 4.7813,36.2344 13.875,52.0313l-14.7656 53.9062 55.1719 -14.4844c15.1875,8.2969 32.2969,12.6563 49.7344,12.6563l0.0468 0c57.3281,0 105.0469,-46.6875 105.0469,-104.0625 0,-27.7969 -11.8125,-53.9063 -31.4531,-73.5938zm-73.5938 160.125c-15.5625,0 -30.7969,-4.1719 -44.0625,-12.0469l-3.1406 -1.875 -32.7188 8.5781 8.7188 -31.9218 -2.0625 -3.2813c-8.6719,-13.7813 -13.2188,-29.6719 -13.2188,-46.0313 0,-47.6719 38.8125,-86.4844 86.5313,-86.4844 23.1094,0 44.8125,9 61.125,25.3594 16.3125,16.3594 26.3438,38.0625 26.2969,61.1719 0,47.7188 -39.7969,86.5313 -87.4688,86.5313zm47.4375 -64.7812c-2.5781,-1.3125 -15.375,-7.5938 -17.7656,-8.4375 -2.3906,-0.8906 -4.125,-1.3125 -5.8594,1.3125 -1.7344,2.625 -6.7031,8.4375 -8.25,10.2188 -1.5,1.7344 -3.0469,1.9688 -5.625,0.6563 -15.2813,-7.6406 -25.3125,-13.6406 -35.3906,-30.9375 -2.6719,-4.5938 2.6719,-4.2656 7.6406,-14.2031 0.8438,-1.7344 0.4219,-3.2344 -0.2344,-4.5469 -0.6563,-1.3125 -5.8594,-14.1094 -8.0156,-19.3125 -2.1094,-5.0625 -4.2656,-4.3594 -5.8594,-4.4531 -1.5,-0.0938 -3.2344,-0.0938 -4.9688,-0.0938 -1.7344,0 -4.5469,0.6563 -6.9375,3.2344 -2.3906,2.625 -9.0938,8.9063 -9.0938,21.7031 0,12.7969 9.3281,25.1719 10.5938,26.9063 1.3125,1.7344 18.3281,27.9844 44.4375,39.2813 16.5,7.125 22.9688,7.7344 31.2188,6.5156 5.0156,-0.75 15.375,-6.2813 17.5313,-12.375 2.1563,-6.0938 2.1563,-11.2969 1.5,-12.375 -0.6094,-1.1719 -2.3438,-1.8281 -4.9219,-3.0938l0 -0.0001z"/>
 </g>
</svg>
