<svg width="40" height="40" viewBox="0 0 40 40" fill="none" xmlns="http://www.w3.org/2000/svg">
<g id="book-open-outline" clip-path="url(#clip0_1_755)">
<g id="Layer 2">
<g id="book-open">
<path id="Vector" d="M34.3667 7.03341C34.1731 6.87678 33.9468 6.76553 33.7045 6.70785C33.4622 6.65016 33.2101 6.64751 32.9667 6.70007L20 9.61674L7.03335 6.66674C6.78606 6.61089 6.52928 6.61219 6.28257 6.67054C6.03585 6.72889 5.8057 6.84276 5.60963 7.00347C5.41356 7.16419 5.25674 7.36751 5.1511 7.59798C5.04546 7.82844 4.99379 8.07996 5.00001 8.33341V28.6667C4.9906 29.052 5.11499 29.4286 5.35201 29.7325C5.58904 30.0364 5.92405 30.2487 6.30001 30.3334L19.6333 33.3334H20.3667L33.7 30.3334C34.076 30.2487 34.411 30.0364 34.648 29.7325C34.885 29.4286 35.0094 29.052 35 28.6667V8.33341C34.9989 8.08307 34.9413 7.8362 34.8317 7.61114C34.722 7.38608 34.5631 7.18862 34.3667 7.03341ZM8.33335 10.4167L18.3333 12.6667V29.5834L8.33335 27.3334V10.4167ZM31.6667 27.3334L21.6667 29.5834V12.6667L31.6667 10.4167V27.3334Z" fill="#D8D7CE"/>
</g>
</g>
</g>
<defs>
<clipPath id="clip0_1_755">
<rect width="40" height="40" fill="white"/>
</clipPath>
</defs>
</svg>
